<svg xmlns="http://www.w3.org/2000/svg" xmlns:xlink="http://www.w3.org/1999/xlink" width="1080" zoomAndPan="magnify" viewBox="0 0 810 809.999993" height="1080" preserveAspectRatio="xMidYMid meet" version="1.0"><defs><clipPath id="bee148a3a2"><path d="M 299 131.367188 L 539 131.367188 L 539 152 L 299 152 Z M 299 131.367188 " clip-rule="nonzero"/></clipPath><clipPath id="610e137b48"><path d="M 146.4375 478.136719 L 309.859375 478.136719 L 309.859375 678.835938 L 146.4375 678.835938 Z M 146.4375 478.136719 " clip-rule="nonzero"/></clipPath><clipPath id="0891ed666f"><path d="M 33.417969 447 L 147 447 L 147 678.835938 L 33.417969 678.835938 Z M 33.417969 447 " clip-rule="nonzero"/></clipPath><clipPath id="00d297a19e"><path d="M 709 503 L 776.90625 503 L 776.90625 678 L 709 678 Z M 709 503 " clip-rule="nonzero"/></clipPath><clipPath id="1a07e7a258"><path d="M 584 490.359375 L 776.90625 490.359375 L 776.90625 534 L 584 534 Z M 584 490.359375 " clip-rule="nonzero"/></clipPath></defs><path fill="#e3995a" d="M 259.695312 467.730469 L 436.0625 467.730469 L 436.0625 437.453125 L 259.695312 437.453125 Z M 259.695312 467.730469 " fill-opacity="1" fill-rule="nonzero"/><path fill="#fcc47f" d="M 482.292969 452.359375 L 299.832031 452.359375 L 299.832031 136.644531 L 374.613281 151.664062 L 482.292969 452.359375 " fill-opacity="1" fill-rule="nonzero"/><path fill="#c9b0a9" d="M 773.058594 577.035156 L 636.210938 577.035156 L 639.386719 620.175781 L 735.773438 620.175781 L 773.058594 577.035156 " fill-opacity="1" fill-rule="nonzero"/><g clip-path="url(#bee148a3a2)"><path fill="#fedc98" d="M 538.972656 143.957031 L 374.613281 151.664062 L 299.832031 136.644531 L 458.804688 131.375 L 538.972656 143.957031 " fill-opacity="1" fill-rule="nonzero"/></g><path fill="#d58854" d="M 280.53125 637.554688 L 413.558594 637.554688 L 413.558594 467.730469 L 280.53125 467.730469 Z M 280.53125 637.554688 " fill-opacity="1" fill-rule="nonzero"/><path fill="#e9dcdb" d="M 280.53125 468.257812 L 237.609375 468.257812 L 237.609375 448.738281 L 299.832031 360.035156 L 299.832031 437.445312 L 259.695312 437.445312 L 259.695312 467.730469 L 394.738281 467.730469 L 280.53125 467.730469 L 280.53125 468.257812 " fill-opacity="1" fill-rule="nonzero"/><path fill="#d1854d" d="M 394.738281 467.730469 L 259.695312 467.730469 L 259.695312 437.445312 L 299.832031 437.445312 L 299.832031 452.359375 L 402.476562 452.359375 L 394.738281 467.730469 " fill-opacity="1" fill-rule="nonzero"/><path fill="#e6a96d" d="M 402.476562 452.359375 L 299.832031 452.359375 L 299.832031 360.035156 L 351.285156 286.671875 L 374.613281 294.5 L 397.996094 416.847656 L 361.429688 428.730469 L 401.199219 433.605469 L 404.144531 449.035156 L 402.476562 452.359375 " fill-opacity="1" fill-rule="nonzero"/><path fill="#c47648" d="M 309.292969 637.554688 L 308.75 636.824219 L 309.664062 636.824219 L 309.292969 637.554688 M 394.476562 468.257812 L 280.53125 468.257812 L 280.53125 467.730469 L 394.738281 467.730469 L 394.476562 468.257812 " fill-opacity="1" fill-rule="nonzero"/><path fill="#e0965a" d="M 538.972656 452.359375 L 374.613281 452.359375 L 374.613281 151.664062 L 538.972656 143.957031 L 538.972656 452.359375 " fill-opacity="1" fill-rule="nonzero"/><path fill="#eaa563" d="M 534.480469 620.175781 L 735.773438 620.175781 L 735.773438 453.605469 L 534.480469 453.605469 Z M 534.480469 620.175781 " fill-opacity="1" fill-rule="nonzero"/><path fill="#d4c8bf" d="M 423.410156 636.824219 L 413.558594 636.824219 L 413.558594 468.257812 L 423.410156 468.257812 L 423.410156 636.824219 M 280.53125 636.824219 L 235.140625 636.824219 L 235.140625 468.257812 L 237.609375 468.257812 L 237.609375 540.914062 L 280.53125 598.777344 L 280.53125 636.824219 " fill-opacity="1" fill-rule="nonzero"/><path fill="#b56f41" d="M 413.558594 636.824219 L 309.664062 636.824219 L 394.476562 468.257812 L 413.558594 468.257812 L 413.558594 636.824219 M 308.75 636.824219 L 280.53125 636.824219 L 280.53125 598.777344 L 308.75 636.824219 " fill-opacity="1" fill-rule="nonzero"/><path fill="#c3ada4" d="M 280.53125 598.777344 L 237.609375 540.914062 L 237.609375 468.257812 L 280.53125 468.257812 L 280.53125 598.777344 " fill-opacity="1" fill-rule="nonzero"/><path fill="#a86238" d="M 309.664062 636.824219 L 308.75 636.824219 L 280.53125 598.777344 L 280.53125 468.257812 L 394.476562 468.257812 L 309.664062 636.824219 " fill-opacity="1" fill-rule="nonzero"/><g clip-path="url(#610e137b48)"><path fill="#e3995a" d="M 309.292969 654.214844 L 146.976562 678.835938 L 146.976562 499.230469 L 309.292969 478.226562 L 309.292969 654.214844 " fill-opacity="1" fill-rule="nonzero"/></g><g clip-path="url(#0891ed666f)"><path fill="#fdc480" d="M 33.425781 611.269531 L 146.976562 678.835938 L 146.976562 499.230469 L 33.425781 447.28125 L 33.425781 611.269531 " fill-opacity="1" fill-rule="nonzero"/></g><path fill="#fedc98" d="M 171.359375 427.894531 L 33.425781 447.28125 L 146.976562 499.230469 L 309.292969 478.226562 L 171.359375 427.894531 " fill-opacity="1" fill-rule="nonzero"/><path fill="#ffd692" d="M 735.773438 453.679688 L 534.480469 453.679688 L 534.480469 428.328125 L 714.050781 428.328125 L 735.773438 453.679688 " fill-opacity="1" fill-rule="nonzero"/><path fill="#fff2e1" d="M 218.78125 460.480469 L 99.433594 478.023438 L 75.269531 466.972656 L 201.410156 451.070312 L 218.78125 460.480469 " fill-opacity="1" fill-rule="nonzero"/><path fill="#e59d5d" d="M 351.285156 453.605469 L 161.578125 478.226562 L 161.578125 298.617188 L 351.285156 286.671875 L 351.285156 453.605469 " fill-opacity="1" fill-rule="nonzero"/><path fill="#db9458" d="M 587.335938 573.8125 L 587.335938 462.472656 L 635.847656 472.183594 L 635.847656 453.679688 L 694.277344 453.679688 L 587.335938 573.8125 " fill-opacity="1" fill-rule="nonzero"/><path fill="#eebf82" d="M 694.277344 453.679688 L 635.847656 453.679688 L 635.847656 449.261719 L 701.015625 446.105469 L 694.277344 453.679688 " fill-opacity="1" fill-rule="nonzero"/><path fill="#fcc47f" d="M 102.933594 449.257812 L 161.578125 478.226562 L 161.578125 298.617188 L 104.382812 277.621094 L 102.933594 449.257812 " fill-opacity="1" fill-rule="nonzero"/><path fill="#7f582c" d="M 209.074219 454.667969 C 209.082031 457.257812 207.015625 459.664062 204.480469 460.027344 L 183.605469 463.039062 C 181.070312 463.40625 179.007812 461.597656 179.007812 459.007812 L 178.996094 437.40625 C 178.996094 434.816406 181.054688 432.410156 183.59375 432.046875 L 204.46875 429.039062 C 207.003906 428.667969 209.070312 430.484375 209.070312 433.066406 Z M 204.46875 427.003906 L 183.589844 430.019531 C 179.960938 430.542969 177.007812 433.984375 177.007812 437.691406 L 177.015625 459.292969 C 177.019531 463.003906 179.972656 465.59375 183.605469 465.070312 L 204.480469 462.0625 C 208.113281 461.535156 211.066406 458.09375 211.066406 454.382812 L 211.054688 432.78125 C 211.054688 429.074219 208.097656 426.480469 204.46875 427.003906 " fill-opacity="1" fill-rule="nonzero"/><path fill="#7f582c" d="M 193.09375 435.023438 C 193.371094 448.878906 193.332031 449.691406 193.199219 452.371094 C 193.171875 452.949219 193.140625 453.625 193.105469 454.539062 C 193.09375 454.855469 192.550781 455.957031 191.769531 456.25 C 191.238281 456.445312 190.660156 456.148438 190.417969 456.023438 C 189.546875 455.574219 189.226562 454.703125 189.105469 454.226562 L 187.902344 454.699219 C 188.0625 455.355469 188.515625 456.546875 189.738281 457.1875 C 190.03125 457.335938 190.722656 457.695312 191.554688 457.570312 C 191.707031 457.550781 191.871094 457.507812 192.035156 457.449219 C 193.371094 456.953125 194.308594 455.289062 194.34375 454.40625 C 194.382812 453.5 194.410156 452.835938 194.441406 452.257812 C 194.570312 449.542969 194.613281 448.726562 194.339844 434.820312 L 193.09375 435.023438 " fill-opacity="1" fill-rule="nonzero"/><path fill="#7f582c" d="M 193.492188 435.792969 C 186.792969 437.054688 183.058594 447.539062 183.058594 447.539062 C 183.058594 447.539062 184.929688 444.972656 186.953125 445.03125 C 188.527344 445.074219 190.101562 446.605469 190.101562 446.605469 C 190.101562 446.605469 192.359375 443.660156 194.160156 443.394531 C 195.621094 443.183594 197.554688 444.769531 197.554688 444.769531 C 197.554688 444.769531 199.492188 442.9375 201.199219 442.722656 C 203.460938 442.4375 205.011719 443.945312 205.011719 443.945312 C 205.011719 443.945312 200.394531 434.5 193.492188 435.792969 " fill-opacity="1" fill-rule="nonzero"/><path fill="#7f582c" d="M 247.121094 449.183594 C 247.125 451.773438 245.0625 454.179688 242.527344 454.542969 L 221.644531 457.550781 C 219.117188 457.921875 217.050781 456.105469 217.046875 453.523438 L 217.039062 431.921875 C 217.039062 429.332031 219.097656 426.925781 221.632812 426.5625 L 242.515625 423.550781 C 245.050781 423.183594 247.113281 424.992188 247.113281 427.582031 Z M 242.515625 421.519531 L 221.632812 424.527344 C 218 425.054688 215.054688 428.496094 215.054688 432.207031 L 215.058594 453.804688 C 215.066406 457.515625 218.019531 460.105469 221.652344 459.585938 L 242.527344 456.570312 C 246.160156 456.046875 249.113281 452.605469 249.113281 448.898438 L 249.101562 427.296875 C 249.101562 423.585938 246.140625 420.996094 242.515625 421.519531 " fill-opacity="1" fill-rule="nonzero"/><path fill="#7f582c" d="M 228.613281 454.542969 L 226.628906 454.828125 L 226.617188 433.039062 L 228.601562 432.75 L 228.613281 454.542969 " fill-opacity="1" fill-rule="nonzero"/><path fill="#7f582c" d="M 227.503906 428.933594 L 230.894531 436.472656 L 224.121094 437.445312 Z M 227.503906 428.933594 " fill-opacity="1" fill-rule="nonzero"/><path fill="#7f582c" d="M 237.546875 453.253906 L 235.558594 453.539062 L 235.550781 431.75 L 237.53125 431.460938 L 237.546875 453.253906 " fill-opacity="1" fill-rule="nonzero"/><path fill="#7f582c" d="M 236.644531 427.613281 L 240.03125 435.15625 L 233.261719 436.132812 Z M 236.644531 427.613281 " fill-opacity="1" fill-rule="nonzero"/><path fill="#7f582c" d="M 240.800781 453.183594 L 223.371094 455.695312 L 223.371094 453.792969 L 240.800781 451.277344 L 240.800781 453.183594 " fill-opacity="1" fill-rule="nonzero"/><path fill="#7f582c" d="M 285.164062 443.695312 C 285.171875 446.285156 283.109375 448.6875 280.570312 449.054688 L 259.691406 452.066406 C 257.15625 452.429688 255.097656 450.621094 255.089844 448.03125 L 255.085938 426.429688 C 255.085938 423.839844 257.144531 421.4375 259.679688 421.074219 L 280.558594 418.066406 C 283.09375 417.695312 285.160156 419.503906 285.160156 422.09375 Z M 280.558594 416.03125 L 259.679688 419.042969 C 256.046875 419.5625 253.097656 423.011719 253.097656 426.71875 L 253.105469 448.320312 C 253.105469 452.03125 256.0625 454.621094 259.695312 454.097656 L 280.570312 451.082031 C 284.207031 450.5625 287.160156 447.121094 287.160156 443.410156 L 287.144531 421.808594 C 287.144531 418.101562 284.1875 415.503906 280.558594 416.03125 " fill-opacity="1" fill-rule="nonzero"/><path fill="#7f582c" d="M 274.335938 430.441406 C 274.335938 432.488281 273.007812 434.535156 271.054688 435.273438 C 270.765625 435.386719 270.453125 435.472656 270.125 435.519531 C 269.796875 435.566406 269.488281 435.566406 269.195312 435.542969 C 267.242188 435.371094 265.914062 433.707031 265.914062 431.660156 L 265.90625 422.78125 L 274.332031 421.566406 L 274.335938 430.441406 " fill-opacity="1" fill-rule="nonzero"/><path fill="#7f582c" d="M 269.476562 447.042969 L 270.78125 446.851562 L 270.777344 428.753906 L 269.46875 428.9375 L 269.476562 447.042969 " fill-opacity="1" fill-rule="nonzero"/><path fill="#7f582c" d="M 276.085938 447.019531 L 264.175781 448.738281 L 264.175781 447.328125 L 276.085938 445.609375 L 276.085938 447.019531 " fill-opacity="1" fill-rule="nonzero"/><path fill="#ffd893" d="M 262.542969 268.792969 L 104.382812 277.621094 L 161.578125 298.617188 L 351.285156 286.671875 L 262.542969 268.792969 " fill-opacity="1" fill-rule="nonzero"/><path fill="#fdb575" d="M 635.847656 472.183594 L 509.136719 446.832031 L 509.136719 263.601562 L 635.847656 276.503906 L 635.847656 472.183594 " fill-opacity="1" fill-rule="nonzero"/><path fill="#833b1f" d="M 161.578125 298.617188 C 161.578125 298.617188 155.90625 296.273438 154.613281 295.722656 C 144.628906 291.476562 132.769531 288.199219 132.769531 288.199219 L 161.578125 298.617188 " fill-opacity="1" fill-rule="nonzero"/><path fill="#833b1f" d="M 104.382812 277.621094 C 104.382812 277.621094 106.527344 278.335938 108 278.746094 C 117.003906 281.277344 125.695312 285.730469 125.695312 285.730469 L 104.382812 277.621094 " fill-opacity="1" fill-rule="nonzero"/><path fill="#c99570" d="M 316.503906 279.660156 L 139.175781 290.4375 L 122.910156 284.757812 L 295.980469 275.523438 L 316.503906 279.660156 " fill-opacity="1" fill-rule="nonzero"/><path fill="#c47d49" d="M 701.015625 446.105469 L 635.847656 472.183594 L 635.847656 276.503906 L 701.015625 259.980469 L 701.015625 446.105469 " fill-opacity="1" fill-rule="nonzero"/><path fill="#ffd893" d="M 701.015625 259.980469 L 596.753906 246.949219 L 509.136719 263.601562 L 635.847656 276.503906 L 701.015625 259.980469 " fill-opacity="1" fill-rule="nonzero"/><path fill="#c99570" d="M 248.355469 293.152344 L 178.171875 273.496094 L 202.585938 272.230469 L 274.941406 291.851562 L 248.355469 293.152344 " fill-opacity="1" fill-rule="nonzero"/><path fill="#c99570" d="M 446.402344 148.683594 L 366.738281 134.429688 L 396.796875 133.433594 L 472.992188 147.378906 L 446.402344 148.683594 " fill-opacity="1" fill-rule="nonzero"/><path fill="#febe7e" d="M 486.328125 674.140625 L 361.429688 653.019531 L 361.429688 428.730469 L 486.328125 444.027344 L 486.328125 674.140625 " fill-opacity="1" fill-rule="nonzero"/><path fill="#ce8d57" d="M 546.066406 635.5 L 486.328125 674.140625 L 486.328125 444.027344 L 546.066406 419.066406 L 546.066406 635.5 " fill-opacity="1" fill-rule="nonzero"/><path fill="#fedc98" d="M 546.066406 419.066406 L 434.261719 405.0625 L 361.429688 428.730469 L 486.328125 444.027344 L 546.066406 419.066406 " fill-opacity="1" fill-rule="nonzero"/><path fill="#c97f4c" d="M 587.335938 620.175781 L 546.066406 620.175781 L 587.335938 573.8125 L 587.335938 620.175781 " fill-opacity="1" fill-rule="nonzero"/><path fill="#be7343" d="M 546.066406 620.175781 L 546.066406 454.222656 L 587.335938 462.472656 L 587.335938 573.8125 L 546.066406 620.175781 " fill-opacity="1" fill-rule="nonzero"/><path fill="#d78c59" d="M 587.335938 462.472656 L 546.066406 454.222656 L 546.066406 418.875 L 587.335938 427.894531 L 587.335938 462.472656 " fill-opacity="1" fill-rule="nonzero"/><path fill="#a37452" d="M 274.941406 330.351562 L 248.355469 332.558594 L 248.355469 293.152344 L 274.941406 291.851562 L 274.941406 330.351562 " fill-opacity="1" fill-rule="nonzero"/><path fill="#a37452" d="M 274.570312 463.558594 L 248.355469 466.984375 L 248.355469 439.023438 L 274.941406 435.679688 L 274.570312 463.558594 " fill-opacity="1" fill-rule="nonzero"/><path fill="#ba835d" d="M 139.175781 318.347656 L 122.753906 310.792969 L 122.910156 284.757812 L 139.175781 290.4375 L 139.175781 318.347656 " fill-opacity="1" fill-rule="nonzero"/><path fill="#ba835d" d="M 341.820312 173.011719 L 325.394531 168.703125 L 325.351562 141.816406 L 341.820312 145.082031 L 341.820312 173.011719 " fill-opacity="1" fill-rule="nonzero"/><path fill="#fcecd9" d="M 99.433594 506.648438 L 75.101562 494.488281 L 75.269531 466.972656 L 99.433594 478.023438 L 99.433594 506.648438 " fill-opacity="1" fill-rule="nonzero"/><path fill="#fcecd9" d="M 580.839844 303.152344 L 556.503906 298.839844 L 556.503906 268.664062 L 580.839844 270.996094 L 580.839844 303.152344 " fill-opacity="1" fill-rule="nonzero"/><path fill="#fff2e1" d="M 432.730469 665.109375 L 408.398438 661.226562 L 408.398438 634.082031 L 432.730469 638.394531 L 432.730469 665.109375 " fill-opacity="1" fill-rule="nonzero"/><path fill="#fff2e1" d="M 432.730469 437.585938 L 408.398438 434.605469 L 477.628906 410.234375 L 496.910156 412.910156 L 432.730469 437.585938 " fill-opacity="1" fill-rule="nonzero"/><path fill="#fcecd9" d="M 97.933594 649.65625 L 73.609375 634.367188 L 73.777344 606.851562 L 97.933594 619.8125 L 97.933594 649.65625 " fill-opacity="1" fill-rule="nonzero"/><path fill="#bf6726" d="M 33.425781 447.28125 C 33.226562 447.246094 39.460938 449.578125 42.296875 450.707031 C 58.636719 457.234375 76.238281 467.222656 75.914062 466.972656 C 75.441406 466.597656 33.800781 447.359375 33.425781 447.28125 " fill-opacity="1" fill-rule="nonzero"/><path fill="#bf6726" d="M 100.328125 477.894531 C 100.328125 477.894531 112.675781 483.019531 113.523438 483.390625 C 130.480469 490.757812 146.976562 499.230469 146.976562 499.230469 L 100.328125 477.894531 " fill-opacity="1" fill-rule="nonzero"/><path fill="#bf6726" d="M 361.429688 428.730469 C 361.429688 428.730469 374.429688 429.296875 383.824219 430.394531 C 394.261719 431.609375 408.398438 434.605469 408.398438 434.605469 L 361.429688 428.730469 " fill-opacity="1" fill-rule="nonzero"/><path fill="#bf6726" d="M 433.070312 437.453125 C 433.070312 437.453125 446.03125 438.21875 455.171875 439.152344 C 468.351562 440.503906 486.328125 444.027344 486.328125 444.027344 L 433.070312 437.453125 " fill-opacity="1" fill-rule="nonzero"/><path fill="#ffffff" d="M 630.328125 251.144531 L 556.503906 268.664062 L 580.839844 270.996094 L 651.144531 253.746094 L 630.328125 251.144531 " fill-opacity="1" fill-rule="nonzero"/><path fill="#efd9c2" d="M 678.636719 288.515625 L 663.125 293.402344 L 663.125 269.511719 L 678.636719 265.578125 L 678.636719 288.515625 " fill-opacity="1" fill-rule="nonzero"/><path fill="#efd9c2" d="M 680.898438 454.15625 L 665.378906 460.363281 L 665.378906 437.035156 L 680.898438 432.195312 L 680.898438 454.15625 " fill-opacity="1" fill-rule="nonzero"/><path fill="#ffffff" d="M 663.125 269.511719 L 542.265625 257.308594 L 564.015625 253.171875 L 678.636719 265.578125 L 663.125 269.511719 " fill-opacity="1" fill-rule="nonzero"/><path fill="#bf6726" d="M 580.839844 270.996094 C 580.839844 270.996094 594.527344 271.359375 600.550781 271.824219 C 618.128906 273.167969 636.210938 276.347656 636.210938 276.347656 L 580.839844 270.996094 " fill-opacity="1" fill-rule="nonzero"/><path fill="#bf6726" d="M 509.136719 263.601562 C 509.136719 263.601562 521.5625 263.984375 527.777344 264.761719 C 541.882812 266.53125 556.503906 268.664062 556.503906 268.664062 L 509.136719 263.601562 " fill-opacity="1" fill-rule="nonzero"/><path fill="#7f582c" d="M 637.34375 598.800781 C 637.34375 601.410156 635.222656 603.535156 632.609375 603.535156 L 611.125 603.535156 C 608.515625 603.535156 606.394531 601.410156 606.394531 598.800781 L 606.394531 577.035156 C 606.394531 574.421875 608.515625 572.300781 611.125 572.300781 L 632.609375 572.300781 C 635.222656 572.300781 637.34375 574.421875 637.34375 577.035156 Z M 632.609375 570.253906 L 611.125 570.253906 C 607.382812 570.253906 604.347656 573.292969 604.347656 577.035156 L 604.347656 598.800781 C 604.347656 602.539062 607.382812 605.582031 611.125 605.582031 L 632.609375 605.582031 C 636.347656 605.582031 639.386719 602.539062 639.386719 598.800781 L 639.386719 577.035156 C 639.386719 573.292969 636.347656 570.253906 632.609375 570.253906 " fill-opacity="1" fill-rule="nonzero"/><path fill="#7f582c" d="M 620.902344 576.679688 C 621.183594 590.6875 621.140625 591.492188 621.003906 594.171875 C 620.972656 594.757812 620.9375 595.429688 620.902344 596.34375 C 620.890625 596.660156 620.328125 597.699219 619.523438 597.878906 C 618.980469 597.996094 618.390625 597.613281 618.132812 597.453125 C 617.246094 596.875 616.910156 595.949219 616.792969 595.449219 L 615.546875 595.753906 C 615.710938 596.433594 616.175781 597.710938 617.441406 598.527344 C 617.742188 598.71875 618.449219 599.179688 619.304688 599.179688 C 619.464844 599.179688 619.632812 599.160156 619.804688 599.125 C 621.175781 598.820312 622.144531 597.28125 622.179688 596.390625 C 622.214844 595.484375 622.25 594.820312 622.28125 594.238281 C 622.417969 591.527344 622.460938 590.703125 622.179688 576.65625 L 620.902344 576.679688 " fill-opacity="1" fill-rule="nonzero"/><path fill="#7f582c" d="M 621.3125 577.511719 C 614.410156 577.804688 610.570312 587.835938 610.570312 587.835938 C 610.570312 587.835938 612.496094 585.519531 614.578125 585.871094 C 616.195312 586.140625 617.816406 587.917969 617.816406 587.917969 C 617.816406 587.917969 620.140625 585.273438 621.996094 585.273438 C 623.496094 585.273438 625.492188 587.148438 625.492188 587.148438 C 625.492188 587.148438 627.484375 585.585938 629.242188 585.613281 C 631.5625 585.65625 633.164062 587.40625 633.164062 587.40625 C 633.164062 587.40625 628.417969 577.210938 621.3125 577.511719 " fill-opacity="1" fill-rule="nonzero"/><path fill="#7f582c" d="M 676.492188 598.800781 C 676.492188 601.410156 674.371094 603.535156 671.761719 603.535156 L 650.277344 603.535156 C 647.667969 603.535156 645.542969 601.410156 645.542969 598.800781 L 645.542969 577.035156 C 645.542969 574.421875 647.667969 572.300781 650.277344 572.300781 L 671.761719 572.300781 C 674.371094 572.300781 676.492188 574.421875 676.492188 577.035156 Z M 671.761719 570.253906 L 650.277344 570.253906 C 646.539062 570.253906 643.496094 573.292969 643.496094 577.035156 L 643.496094 598.800781 C 643.496094 602.539062 646.539062 605.582031 650.277344 605.582031 L 671.761719 605.582031 C 675.503906 605.582031 678.539062 602.539062 678.539062 598.800781 L 678.539062 577.035156 C 678.539062 573.292969 675.503906 570.253906 671.761719 570.253906 " fill-opacity="1" fill-rule="nonzero"/><path fill="#7f582c" d="M 657.445312 601.511719 L 655.398438 601.511719 L 655.398438 579.550781 L 657.445312 579.550781 L 657.445312 601.511719 " fill-opacity="1" fill-rule="nonzero"/><path fill="#7f582c" d="M 656.316406 575.542969 L 659.800781 583.632812 L 652.832031 583.632812 Z M 656.316406 575.542969 " fill-opacity="1" fill-rule="nonzero"/><path fill="#7f582c" d="M 666.636719 601.511719 L 664.589844 601.511719 L 664.589844 579.550781 L 666.636719 579.550781 L 666.636719 601.511719 " fill-opacity="1" fill-rule="nonzero"/><path fill="#7f582c" d="M 665.71875 575.542969 L 669.203125 583.632812 L 662.234375 583.632812 Z M 665.71875 575.542969 " fill-opacity="1" fill-rule="nonzero"/><path fill="#7f582c" d="M 669.992188 601.910156 L 652.050781 601.910156 L 652.050781 599.996094 L 669.992188 599.996094 L 669.992188 601.910156 " fill-opacity="1" fill-rule="nonzero"/><path fill="#7f582c" d="M 715.648438 598.800781 C 715.648438 601.410156 713.523438 603.535156 710.917969 603.535156 L 689.429688 603.535156 C 686.820312 603.535156 684.695312 601.410156 684.695312 598.800781 L 684.695312 577.035156 C 684.695312 574.421875 686.820312 572.300781 689.429688 572.300781 L 710.917969 572.300781 C 713.523438 572.300781 715.648438 574.421875 715.648438 577.035156 Z M 710.917969 570.253906 L 689.429688 570.253906 C 685.691406 570.253906 682.652344 573.292969 682.652344 577.035156 L 682.652344 598.800781 C 682.652344 602.539062 685.691406 605.582031 689.429688 605.582031 L 710.917969 605.582031 C 714.652344 605.582031 717.695312 602.539062 717.695312 598.800781 L 717.695312 577.035156 C 717.695312 573.292969 714.652344 570.253906 710.917969 570.253906 " fill-opacity="1" fill-rule="nonzero"/><path fill="#7f582c" d="M 704.511719 583.871094 C 704.511719 585.929688 703.136719 587.804688 701.132812 588.265625 C 700.828125 588.335938 700.507812 588.371094 700.171875 588.371094 C 699.839844 588.371094 699.515625 588.335938 699.210938 588.265625 C 697.207031 587.804688 695.839844 585.929688 695.839844 583.871094 L 695.839844 574.925781 L 704.511719 574.925781 L 704.511719 583.871094 " fill-opacity="1" fill-rule="nonzero"/><path fill="#7f582c" d="M 699.5 599.894531 L 700.847656 599.894531 L 700.847656 581.652344 L 699.5 581.652344 L 699.5 599.894531 " fill-opacity="1" fill-rule="nonzero"/><path fill="#7f582c" d="M 706.300781 600.832031 L 694.046875 600.832031 L 694.046875 599.410156 L 706.300781 599.410156 L 706.300781 600.832031 " fill-opacity="1" fill-rule="nonzero"/><path fill="#7f582c" d="M 436.183594 475.417969 C 436.183594 477.894531 434.167969 479.671875 431.683594 479.378906 L 411.273438 476.980469 C 408.792969 476.695312 406.78125 474.4375 406.78125 471.957031 L 406.78125 451.277344 C 406.78125 448.804688 408.792969 447.019531 411.273438 447.3125 L 431.683594 449.710938 C 434.167969 450.003906 436.183594 452.25 436.183594 454.734375 Z M 431.683594 447.765625 L 411.273438 445.367188 C 407.726562 444.949219 404.835938 447.5 404.835938 451.050781 L 404.835938 471.730469 C 404.835938 475.285156 407.726562 478.507812 411.273438 478.925781 L 431.683594 481.324219 C 435.242188 481.742188 438.128906 479.195312 438.128906 475.644531 L 438.128906 454.960938 C 438.128906 451.410156 435.242188 448.183594 431.683594 447.765625 " fill-opacity="1" fill-rule="nonzero"/><path fill="#7f582c" d="M 420.5625 452.5625 C 420.828125 465.898438 420.789062 466.664062 420.660156 469.191406 C 420.628906 469.746094 420.601562 470.378906 420.5625 471.246094 C 420.550781 471.542969 420.019531 472.46875 419.257812 472.546875 C 418.738281 472.601562 418.179688 472.171875 417.9375 471.984375 C 417.09375 471.339844 416.777344 470.421875 416.664062 469.9375 L 415.476562 470.082031 C 415.636719 470.75 416.078125 472.007812 417.277344 472.929688 C 417.558594 473.148438 418.238281 473.664062 419.046875 473.757812 C 419.203125 473.777344 419.359375 473.78125 419.519531 473.765625 C 420.828125 473.625 421.746094 472.273438 421.78125 471.4375 C 421.8125 470.578125 421.847656 469.945312 421.875 469.402344 C 422.007812 466.835938 422.042969 466.058594 421.78125 452.679688 L 420.5625 452.5625 " fill-opacity="1" fill-rule="nonzero"/><path fill="#7f582c" d="M 420.953125 453.402344 C 414.402344 452.910156 410.75 462.003906 410.75 462.003906 C 410.75 462.003906 412.582031 460.027344 414.554688 460.589844 C 416.09375 461.03125 417.636719 462.890625 417.636719 462.890625 C 417.636719 462.890625 419.84375 460.640625 421.601562 460.851562 C 423.035156 461.019531 424.925781 463.023438 424.925781 463.023438 C 424.925781 463.023438 426.816406 461.757812 428.488281 461.984375 C 430.695312 462.28125 432.214844 464.121094 432.214844 464.121094 C 432.214844 464.121094 427.707031 453.90625 420.953125 453.402344 " fill-opacity="1" fill-rule="nonzero"/><path fill="#7f582c" d="M 473.382812 479.785156 C 473.382812 482.261719 471.359375 484.046875 468.882812 483.753906 L 448.472656 481.355469 C 445.992188 481.0625 443.976562 478.804688 443.976562 476.328125 L 443.976562 455.648438 C 443.976562 453.171875 445.992188 451.394531 448.472656 451.679688 L 468.882812 454.078125 C 471.359375 454.371094 473.382812 456.625 473.382812 459.101562 Z M 468.882812 452.132812 L 448.472656 449.734375 C 444.921875 449.320312 442.03125 451.871094 442.03125 455.421875 L 442.03125 476.101562 C 442.03125 479.652344 444.921875 482.882812 448.472656 483.300781 L 468.882812 485.699219 C 472.433594 486.117188 475.320312 483.5625 475.320312 480.011719 L 475.320312 459.335938 C 475.320312 455.777344 472.433594 452.554688 468.882812 452.132812 " fill-opacity="1" fill-rule="nonzero"/><path fill="#7f582c" d="M 455.28125 480.234375 L 453.339844 480.003906 L 453.339844 459.136719 L 455.28125 459.371094 L 455.28125 480.234375 " fill-opacity="1" fill-rule="nonzero"/><path fill="#7f582c" d="M 454.207031 455.4375 L 457.519531 463.511719 L 450.902344 462.738281 Z M 454.207031 455.4375 " fill-opacity="1" fill-rule="nonzero"/><path fill="#7f582c" d="M 464.007812 481.257812 L 462.070312 481.03125 L 462.070312 460.164062 L 464.007812 460.398438 L 464.007812 481.257812 " fill-opacity="1" fill-rule="nonzero"/><path fill="#7f582c" d="M 463.144531 456.488281 L 466.449219 464.5625 L 459.832031 463.785156 Z M 463.144531 456.488281 " fill-opacity="1" fill-rule="nonzero"/><path fill="#7f582c" d="M 467.195312 482.011719 L 450.15625 480.011719 L 450.15625 478.191406 L 467.195312 480.191406 L 467.195312 482.011719 " fill-opacity="1" fill-rule="nonzero"/><path fill="#7f582c" d="M 417.945312 192.71875 C 418 195.410156 415.988281 197.710938 413.464844 197.84375 L 392.671875 198.945312 C 390.148438 199.078125 388.050781 196.996094 387.996094 194.296875 L 387.554688 171.832031 C 387.5 169.132812 389.511719 166.835938 392.035156 166.699219 L 412.828125 165.601562 C 415.351562 165.464844 417.449219 167.546875 417.503906 170.246094 Z M 412.785156 163.484375 L 391.992188 164.585938 C 388.378906 164.777344 385.496094 168.074219 385.574219 171.933594 L 386.015625 194.40625 C 386.09375 198.265625 389.097656 201.25 392.714844 201.058594 L 413.507812 199.957031 C 417.121094 199.765625 420.003906 196.46875 419.925781 192.609375 L 419.484375 170.136719 C 419.40625 166.277344 416.398438 163.292969 412.785156 163.484375 " fill-opacity="1" fill-rule="nonzero"/><path fill="#7f582c" d="M 401.585938 170.722656 C 402.140625 185.167969 402.117188 186.003906 402.039062 188.777344 C 402.027344 189.382812 402.003906 190.074219 401.984375 191.023438 C 401.980469 191.351562 401.46875 192.449219 400.691406 192.675781 C 400.160156 192.824219 399.582031 192.460938 399.335938 192.304688 C 398.460938 191.757812 398.121094 190.820312 397.996094 190.3125 L 396.796875 190.683594 C 396.96875 191.378906 397.445312 192.667969 398.6875 193.449219 C 398.980469 193.636719 399.675781 194.070312 400.5 194.03125 C 400.65625 194.023438 400.816406 193.996094 400.984375 193.945312 C 402.308594 193.566406 403.210938 191.921875 403.226562 191.003906 C 403.246094 190.066406 403.261719 189.382812 403.28125 188.777344 C 403.359375 185.96875 403.382812 185.121094 402.820312 170.632812 L 401.585938 170.722656 " fill-opacity="1" fill-rule="nonzero"/><path fill="#7f582c" d="M 401.996094 171.558594 C 395.328125 172.214844 391.8125 182.765625 391.8125 182.765625 C 391.8125 182.765625 393.632812 180.28125 395.65625 180.53125 C 397.226562 180.730469 398.828125 182.484375 398.828125 182.484375 C 398.828125 182.484375 401.027344 179.632812 402.820312 179.535156 C 404.277344 179.457031 406.238281 181.296875 406.238281 181.296875 C 406.238281 181.296875 408.136719 179.578125 409.835938 179.515625 C 412.085938 179.441406 413.671875 181.164062 413.671875 181.164062 C 413.671875 181.164062 408.871094 170.882812 401.996094 171.558594 " fill-opacity="1" fill-rule="nonzero"/><path fill="#7f582c" d="M 455.835938 190.710938 C 455.890625 193.402344 453.878906 195.707031 451.347656 195.839844 L 430.558594 196.941406 C 428.035156 197.074219 425.941406 194.992188 425.886719 192.292969 L 425.4375 169.820312 C 425.382812 167.128906 427.394531 164.824219 429.925781 164.695312 L 450.714844 163.589844 C 453.238281 163.460938 455.335938 165.542969 455.386719 168.238281 Z M 450.667969 161.476562 L 429.882812 162.582031 C 426.261719 162.773438 423.378906 166.066406 423.457031 169.929688 L 423.90625 192.402344 C 423.984375 196.261719 426.984375 199.246094 430.605469 199.054688 L 451.394531 197.949219 C 455.011719 197.757812 457.894531 194.464844 457.816406 190.605469 L 457.367188 168.132812 C 457.289062 164.269531 454.289062 161.289062 450.667969 161.476562 " fill-opacity="1" fill-rule="nonzero"/><path fill="#7f582c" d="M 437.453125 194.484375 L 435.480469 194.589844 L 435.027344 171.914062 L 437.007812 171.8125 L 437.453125 194.484375 " fill-opacity="1" fill-rule="nonzero"/><path fill="#7f582c" d="M 435.832031 167.730469 L 439.367188 175.90625 L 432.628906 176.265625 Z M 435.832031 167.730469 " fill-opacity="1" fill-rule="nonzero"/><path fill="#7f582c" d="M 446.347656 194.011719 L 444.367188 194.121094 L 443.921875 171.445312 L 445.902344 171.34375 L 446.347656 194.011719 " fill-opacity="1" fill-rule="nonzero"/><path fill="#7f582c" d="M 444.929688 167.253906 L 448.46875 175.429688 L 441.726562 175.78125 Z M 444.929688 167.253906 " fill-opacity="1" fill-rule="nonzero"/><path fill="#7f582c" d="M 449.601562 194.25 L 432.246094 195.175781 L 432.203125 193.195312 L 449.566406 192.277344 L 449.601562 194.25 " fill-opacity="1" fill-rule="nonzero"/><path fill="#7f582c" d="M 493.71875 188.703125 C 493.773438 191.398438 491.761719 193.703125 489.238281 193.832031 L 468.449219 194.929688 C 465.921875 195.066406 463.824219 192.984375 463.769531 190.289062 L 463.328125 167.816406 C 463.273438 165.125 465.285156 162.820312 467.808594 162.691406 L 488.601562 161.585938 C 491.125 161.453125 493.222656 163.539062 493.277344 166.226562 Z M 488.558594 159.472656 L 467.765625 160.570312 C 464.152344 160.769531 461.269531 164.0625 461.347656 167.921875 L 461.789062 190.394531 C 461.867188 194.25 464.875 197.234375 468.488281 197.042969 L 489.28125 195.945312 C 492.894531 195.753906 495.777344 192.460938 495.699219 188.601562 L 495.257812 166.128906 C 495.179688 162.265625 492.175781 159.28125 488.558594 159.472656 " fill-opacity="1" fill-rule="nonzero"/><path fill="#7f582c" d="M 482.632812 173.859375 C 482.675781 175.992188 481.394531 177.988281 479.460938 178.570312 C 479.167969 178.660156 478.859375 178.710938 478.535156 178.730469 C 478.207031 178.746094 477.898438 178.722656 477.605469 178.671875 C 475.652344 178.292969 474.289062 176.433594 474.246094 174.308594 L 474.0625 165.070312 L 482.457031 164.625 L 482.632812 173.859375 " fill-opacity="1" fill-rule="nonzero"/><path fill="#7f582c" d="M 478.117188 190.660156 L 479.417969 190.585938 L 479.050781 171.753906 L 477.75 171.824219 L 478.117188 190.660156 " fill-opacity="1" fill-rule="nonzero"/><path fill="#7f582c" d="M 484.714844 191.273438 L 472.855469 191.90625 L 472.828125 190.445312 L 484.6875 189.8125 L 484.714844 191.273438 " fill-opacity="1" fill-rule="nonzero"/><path fill="#7f582c" d="M 195.300781 649.824219 C 195.328125 652.515625 193.300781 654.996094 190.777344 655.359375 L 169.992188 658.324219 C 167.46875 658.691406 165.390625 656.792969 165.363281 654.09375 L 165.105469 631.632812 C 165.074219 628.9375 167.105469 626.453125 169.628906 626.089844 L 190.414062 623.125 C 192.9375 622.761719 195.019531 624.660156 195.050781 627.355469 Z M 190.390625 621.011719 L 169.605469 623.976562 C 165.988281 624.496094 163.082031 628.054688 163.125 631.914062 L 163.382812 654.382812 C 163.421875 658.234375 166.402344 660.957031 170.015625 660.4375 L 190.800781 657.472656 C 194.417969 656.953125 197.324219 653.398438 197.28125 649.535156 L 197.023438 627.070312 C 196.980469 623.214844 194.003906 620.492188 190.390625 621.011719 " fill-opacity="1" fill-rule="nonzero"/><path fill="#7f582c" d="M 179.136719 629.265625 C 179.574219 643.675781 179.542969 644.515625 179.441406 647.304688 C 179.417969 647.914062 179.394531 648.609375 179.371094 649.554688 C 179.359375 649.886719 178.832031 651.035156 178.058594 651.328125 C 177.527344 651.527344 176.953125 651.210938 176.710938 651.082031 C 175.839844 650.609375 175.503906 649.703125 175.386719 649.203125 L 174.179688 649.683594 C 174.351562 650.367188 174.820312 651.617188 176.046875 652.285156 C 176.339844 652.441406 177.03125 652.816406 177.859375 652.703125 C 178.015625 652.679688 178.175781 652.640625 178.339844 652.578125 C 179.667969 652.070312 180.582031 650.347656 180.605469 649.429688 C 180.628906 648.492188 180.652344 647.800781 180.675781 647.195312 C 180.777344 644.375 180.808594 643.519531 180.378906 629.054688 L 179.136719 629.265625 " fill-opacity="1" fill-rule="nonzero"/><path fill="#7f582c" d="M 179.542969 630.066406 C 172.875 631.324219 169.277344 642.195312 169.277344 642.195312 C 169.277344 642.195312 171.113281 639.546875 173.128906 639.617188 C 174.699219 639.679688 176.285156 641.285156 176.285156 641.285156 C 176.285156 641.285156 178.5 638.238281 180.296875 637.976562 C 181.757812 637.769531 183.703125 639.433594 183.703125 639.433594 C 183.703125 639.433594 185.609375 637.542969 187.3125 637.328125 C 189.5625 637.050781 191.128906 638.632812 191.128906 638.632812 C 191.128906 638.632812 186.417969 628.769531 179.542969 630.066406 " fill-opacity="1" fill-rule="nonzero"/><path fill="#7f582c" d="M 234.3125 644.25 C 234.339844 646.941406 232.3125 649.421875 229.789062 649.785156 L 209.003906 652.757812 C 206.480469 653.117188 204.398438 651.21875 204.367188 648.523438 L 204.117188 626.054688 C 204.085938 623.363281 206.117188 620.882812 208.640625 620.515625 L 229.425781 617.550781 C 231.949219 617.1875 234.023438 619.085938 234.054688 621.78125 Z M 229.402344 615.4375 L 208.617188 618.40625 C 205 618.925781 202.09375 622.480469 202.136719 626.339844 L 202.394531 648.808594 C 202.433594 652.664062 205.414062 655.382812 209.027344 654.863281 L 229.8125 651.898438 C 233.429688 651.378906 236.335938 647.824219 236.292969 643.960938 L 236.035156 621.496094 C 235.992188 617.640625 233.015625 614.917969 229.402344 615.4375 " fill-opacity="1" fill-rule="nonzero"/><path fill="#7f582c" d="M 223.359375 630.382812 C 223.382812 632.503906 222.082031 634.625 220.148438 635.382812 C 219.855469 635.496094 219.546875 635.578125 219.21875 635.625 C 218.894531 635.667969 218.585938 635.675781 218.292969 635.644531 C 216.34375 635.449219 215 633.703125 214.96875 631.582031 L 214.867188 622.34375 L 223.257812 621.144531 L 223.359375 630.382812 " fill-opacity="1" fill-rule="nonzero"/><path fill="#7f582c" d="M 218.703125 647.601562 L 220.003906 647.417969 L 219.789062 628.589844 L 218.488281 628.777344 L 218.703125 647.601562 " fill-opacity="1" fill-rule="nonzero"/><path fill="#7f582c" d="M 225.289062 647.632812 L 213.4375 649.328125 L 213.417969 647.863281 L 225.273438 646.171875 L 225.289062 647.632812 " fill-opacity="1" fill-rule="nonzero"/><path fill="#a37452" d="M 472.992188 185.878906 L 446.402344 188.085938 L 446.402344 148.683594 L 472.992188 147.378906 L 472.992188 185.878906 " fill-opacity="1" fill-rule="nonzero"/><path fill="#c99570" d="M 486.8125 135.902344 L 325.351562 141.816406 L 341.820312 145.082031 L 503.222656 138.347656 L 486.8125 135.902344 " fill-opacity="1" fill-rule="nonzero"/><path fill="#833b1f" d="M 299.832031 136.644531 C 299.832031 136.644531 306.242188 137.632812 308.378906 137.945312 C 317.324219 139.246094 325.351562 141.816406 325.351562 141.816406 L 299.832031 136.644531 " fill-opacity="1" fill-rule="nonzero"/><path fill="#833b1f" d="M 341.820312 145.082031 C 341.820312 145.082031 350.421875 146.226562 353.691406 146.75 C 363.921875 148.386719 374.613281 151.664062 374.613281 151.664062 L 341.820312 145.082031 " fill-opacity="1" fill-rule="nonzero"/><path fill="#fcecd9" d="M 432.730469 469.097656 L 408.398438 464.777344 L 408.398438 434.605469 L 432.730469 437.585938 L 432.730469 469.097656 " fill-opacity="1" fill-rule="nonzero"/><path fill="#febe7e" d="M 709.078125 677.695312 L 584.175781 649.59375 L 584.175781 514.367188 L 709.078125 533.144531 L 709.078125 677.695312 " fill-opacity="1" fill-rule="nonzero"/><g clip-path="url(#00d297a19e)"><path fill="#c47d49" d="M 776.902344 634.082031 L 709.078125 677.695312 L 709.078125 533.144531 L 776.902344 503.761719 L 776.902344 634.082031 " fill-opacity="1" fill-rule="nonzero"/></g><g clip-path="url(#1a07e7a258)"><path fill="#fedc98" d="M 776.902344 503.761719 L 657.015625 490.359375 L 584.175781 514.367188 L 709.078125 533.144531 L 776.902344 503.761719 " fill-opacity="1" fill-rule="nonzero"/></g><path fill="#ba835d" d="M 654.832031 553.234375 L 630.171875 549.273438 L 630.171875 521.351562 L 654.890625 525.113281 L 654.832031 553.234375 " fill-opacity="1" fill-rule="nonzero"/><path fill="#c99570" d="M 654.890625 525.113281 L 630.171875 521.351562 L 698.378906 494.863281 L 721.632812 497.578125 L 654.890625 525.113281 " fill-opacity="1" fill-rule="nonzero"/><path fill="#a37452" d="M 753.109375 540.1875 L 737.597656 547.472656 L 737.597656 520.859375 L 753.109375 514.078125 L 753.109375 540.1875 " fill-opacity="1" fill-rule="nonzero"/><path fill="#a37452" d="M 753.109375 649.421875 L 737.597656 659.484375 L 737.597656 631.140625 L 753.109375 622.738281 L 753.109375 649.421875 " fill-opacity="1" fill-rule="nonzero"/><path fill="#c99570" d="M 753.109375 514.078125 L 632.125 498.558594 L 614.382812 504.410156 L 737.597656 520.859375 L 753.109375 514.078125 " fill-opacity="1" fill-rule="nonzero"/><path fill="#7f582c" d="M 665.605469 653.828125 C 665.605469 656.183594 663.738281 657.667969 661.449219 657.144531 L 642.59375 652.828125 C 640.304688 652.304688 638.441406 649.960938 638.441406 647.609375 L 638.441406 627.957031 C 638.441406 625.605469 640.304688 624.117188 642.59375 624.640625 L 661.449219 628.953125 C 663.738281 629.480469 665.605469 631.824219 665.605469 634.175781 Z M 661.449219 627.109375 L 642.59375 622.789062 C 639.3125 622.039062 636.648438 624.175781 636.648438 627.546875 L 636.648438 647.195312 C 636.648438 650.570312 639.3125 653.921875 642.59375 654.675781 L 661.449219 658.996094 C 664.730469 659.746094 667.402344 657.609375 667.402344 654.238281 L 667.402344 634.589844 C 667.402344 631.214844 664.730469 627.863281 661.449219 627.109375 " fill-opacity="1" fill-rule="nonzero"/><path fill="#7f582c" d="M 651.175781 630.558594 C 651.417969 643.253906 651.382812 643.972656 651.261719 646.367188 C 651.238281 646.886719 651.210938 647.488281 651.175781 648.300781 C 651.167969 648.585938 650.679688 649.410156 649.96875 649.410156 C 649.484375 649.410156 648.972656 648.945312 648.75 648.75 C 647.96875 648.050781 647.671875 647.148438 647.570312 646.671875 L 646.480469 646.691406 C 646.621094 647.347656 647.035156 648.585938 648.136719 649.578125 C 648.398438 649.808594 649.027344 650.371094 649.777344 650.542969 C 649.914062 650.574219 650.0625 650.59375 650.214844 650.59375 C 651.417969 650.59375 652.265625 649.398438 652.300781 648.605469 C 652.332031 647.792969 652.359375 647.195312 652.386719 646.683594 C 652.503906 644.261719 652.539062 643.527344 652.300781 630.792969 L 651.175781 630.558594 " fill-opacity="1" fill-rule="nonzero"/><path fill="#7f582c" d="M 651.539062 631.390625 C 645.484375 630.269531 642.105469 638.542969 642.105469 638.542969 C 642.105469 638.542969 643.800781 636.847656 645.625 637.578125 C 647.046875 638.152344 648.464844 640.078125 648.464844 640.078125 C 648.464844 640.078125 650.503906 638.164062 652.132812 638.53125 C 653.460938 638.832031 655.199219 640.925781 655.199219 640.925781 C 655.199219 640.925781 656.957031 639.917969 658.496094 640.296875 C 660.535156 640.800781 661.9375 642.703125 661.9375 642.703125 C 661.9375 642.703125 657.773438 632.546875 651.539062 631.390625 " fill-opacity="1" fill-rule="nonzero"/><path fill="#7f582c" d="M 699.964844 661.691406 C 699.964844 664.046875 698.097656 665.535156 695.8125 665.007812 L 676.953125 660.695312 C 674.664062 660.167969 672.800781 657.832031 672.800781 655.472656 L 672.800781 635.828125 C 672.800781 633.472656 674.664062 631.980469 676.953125 632.503906 L 695.8125 636.820312 C 698.097656 637.351562 699.964844 639.691406 699.964844 642.046875 Z M 695.8125 634.976562 L 676.953125 630.660156 C 673.679688 629.910156 671.003906 632.039062 671.003906 635.417969 L 671.003906 655.0625 C 671.003906 658.433594 673.679688 661.792969 676.953125 662.542969 L 695.8125 666.859375 C 699.085938 667.609375 701.761719 665.476562 701.761719 662.101562 L 701.761719 642.457031 C 701.761719 639.082031 699.085938 635.726562 695.8125 634.976562 " fill-opacity="1" fill-rule="nonzero"/><path fill="#7f582c" d="M 683.242188 660.308594 L 681.453125 659.902344 L 681.453125 640.078125 L 683.242188 640.488281 L 683.242188 660.308594 " fill-opacity="1" fill-rule="nonzero"/><path fill="#7f582c" d="M 682.25 636.648438 L 685.3125 644.648438 L 679.195312 643.253906 Z M 682.25 636.648438 " fill-opacity="1" fill-rule="nonzero"/><path fill="#7f582c" d="M 691.308594 662.15625 L 689.515625 661.746094 L 689.515625 641.929688 L 691.308594 642.332031 L 691.308594 662.15625 " fill-opacity="1" fill-rule="nonzero"/><path fill="#7f582c" d="M 690.507812 638.539062 L 693.5625 646.539062 L 687.449219 645.136719 Z M 690.507812 638.539062 " fill-opacity="1" fill-rule="nonzero"/><path fill="#7f582c" d="M 694.253906 663.1875 L 678.511719 659.585938 L 678.511719 657.859375 L 694.253906 661.464844 L 694.253906 663.1875 " fill-opacity="1" fill-rule="nonzero"/><path fill="#ba835d" d="M 654.890625 665.503906 L 630.171875 660.085938 L 630.171875 632.164062 L 654.890625 635.925781 L 654.890625 665.503906 " fill-opacity="1" fill-rule="nonzero"/><path fill="#bf6726" d="M 584.175781 514.367188 C 584.175781 514.367188 593.863281 514.753906 601.960938 515.808594 C 613.84375 517.359375 630.664062 521.351562 630.664062 521.351562 L 584.175781 514.367188 " fill-opacity="1" fill-rule="nonzero"/><path fill="#bf6726" d="M 655.265625 524.898438 C 655.265625 524.898438 663.960938 525.808594 666.917969 526.097656 C 687.6875 528.125 709.078125 533.144531 709.078125 533.144531 L 655.265625 524.898438 " fill-opacity="1" fill-rule="nonzero"/></svg>